<?xml version="1.0" encoding="UTF-8"?>
<svg width="44px" height="28px" viewBox="0 0 44 28" version="1.1" xmlns="http://www.w3.org/2000/svg" xmlns:xlink="http://www.w3.org/1999/xlink">
    <!-- Generator: Sketch 54.1 (76490) - https://sketchapp.com -->
    <title>Amex</title>
    <desc>Created with Sketch.</desc>
    <g id="Symbols" stroke="none" stroke-width="1" fill="none" fill-rule="evenodd" opacity="0.4">
        <g id="Footer-—-Desktop" transform="translate(-1357.000000, -472.000000)">
            <g id="Footer">
                <g id="Payment-Icons" transform="translate(1206.000000, 473.000000)">
                    <g id="Amex" transform="translate(152.000000, 0.000000)">
                        <path d="M41.9999658,24.3449587 C42.0053023,25.1027225 41.3859347,25.7210104 40.6154774,25.7262613 L1.57063743,25.999962 C0.800180155,26.0055411 0.171807213,25.3957857 0.166137181,24.6383501 L3.86005487e-05,1.65602152 C-0.00563143131,0.897929576 0.614069698,0.27931342 1.38452697,0.273734389 L40.4290334,3.36597619e-05 C41.1994907,-0.00521719355 41.8281972,0.604538147 41.8335337,1.36295827 L41.9999658,24.3449587 Z" id="Stroke-17-Copy-2" stroke="#FFFFFF" stroke-width="0.6"></path>
                        <g id="Group" transform="translate(7.000000, 11.000000)" fill="#FFFFFF">
                            <path d="M14.9149793,4.75449052 L13.5370547,4.75449052 L13.5370547,1.37301264 C13.5186543,1.36885925 13.5002915,1.36467341 13.4818912,1.36052001 C13.4495591,1.41808344 13.4113314,1.4737973 13.3858337,1.53353476 C12.9488814,2.55630763 12.5105396,3.57865866 12.0814731,4.6038976 C12.0293512,4.72843447 11.9612699,4.76961146 11.8116636,4.76458196 C11.5118127,4.75449052 11.2109104,4.75513948 10.9109845,4.76441972 C10.7727188,4.76870291 10.7152271,4.72317783 10.669827,4.61515718 C10.23678,3.58540792 9.79772474,2.55757311 9.35945805,1.52947872 C9.33459878,1.47113653 9.30159078,1.41539022 9.2723755,1.35841087 C9.25746745,1.36045512 9.24252185,1.36249937 9.2276138,1.36451116 L9.2276138,4.74744922 L7.82993699,4.74744922 L7.82993699,0.0185200144 C7.90019635,0.0128415484 7.96042938,0.00378845103 8.02066242,0.00369110589 C8.64634998,0.00268520619 9.27203754,0.00635187285 9.89764999,0.000673406778 C10.0461672,-0.000656976703 10.1180413,0.041688156 10.1692244,0.165705855 C10.5341149,1.05024863 10.9081305,1.93196839 11.2803812,2.81423978 C11.3072683,2.8779035 11.3429424,2.93877665 11.3920602,3.03540792 C11.448876,2.91684155 11.4927364,2.83481205 11.5280351,2.75015423 C11.8859035,1.89195954 12.2453865,1.03425158 12.5960449,0.173882846 C12.6481668,0.0459388935 12.7197029,-0.00189001505 12.8781714,5.68876037e-05 C13.4849704,0.00742266931 14.0919572,0.00268520619 14.6988689,0.00349641563 C14.766049,0.00359376076 14.8332666,0.010148333 14.9149793,0.0144964156 L14.9149793,4.75449052 Z" id="Fill-1"></path>
                            <path d="M20.6531701,3.71114617 L20.6531701,4.74816387 L16.0118091,4.74816387 L16.0118091,0.0449013311 C16.1415881,-0.00367389011 20.3954148,-0.0191842146 20.6464108,0.0304293547 L20.6464108,1.03671844 L17.4405037,1.03671844 C17.4405037,1.3065267 17.4373494,1.54709897 17.4453479,1.78741166 C17.446174,1.81161815 17.5111761,1.84510487 17.5524455,1.85467714 C17.6052433,1.86691018 17.6641996,1.85993378 17.7204897,1.85993378 C18.5902638,1.86009602 19.4600754,1.86006357 20.329887,1.86006357 L20.5692795,1.86006357 L20.5692795,2.87654145 C20.496016,2.8825444 20.4185467,2.89429071 20.3410774,2.89438806 C19.4712658,2.89571844 18.6014917,2.89474499 17.7317177,2.89597803 C17.6400538,2.89610782 17.5484275,2.90626416 17.4466622,2.91236446 L17.4466622,3.71114617 L20.6531701,3.71114617 Z" id="Fill-9"></path>
                            <path d="M3.37939626,1.14877006 C3.35904321,1.14841313 3.3387277,1.1480562 3.31837464,1.14769927 C3.06084462,1.67861962 2.80331459,2.20950753 2.53722276,2.75804735 L4.16148694,2.75804735 C3.89212811,2.20379661 3.63576219,1.67628334 3.37939626,1.14877006 M5.32907052e-15,4.76040428 C0.23807821,4.29340723 0.459070365,3.85915059 0.680813555,3.42518599 C1.23590379,2.33865207 1.7935851,1.25312404 2.34349319,0.164643218 C2.40560381,0.0416638672 2.48389925,-0.00236858115 2.6378615,9.74955499e-05 C3.13185501,0.00791755455 3.62614893,0.0063924808 4.12021755,0.000811359857 C4.25581698,-0.000746162267 4.33212217,0.0312154897 4.39036496,0.145952953 C5.15319158,1.64889691 5.9224771,3.14943968 6.68962217,4.65072876 C6.70396695,4.67879661 6.71271651,4.70900605 6.73310712,4.76153997 C6.54519807,4.76153997 6.37861843,4.76157242 6.21207634,4.76153997 C5.90554126,4.76153997 5.59893107,4.75728924 5.2926213,4.76364912 C5.17425812,4.76611519 5.11120871,4.73061667 5.06791152,4.63589986 C4.96010039,4.40000015 4.83726856,4.16919484 4.73032112,3.933068 C4.68281813,3.82825974 4.61759071,3.78445443 4.48101493,3.78546033 C3.73046774,3.79110635 2.97977035,3.79143083 2.22926071,3.78526564 C2.08536234,3.78406505 2.01574136,3.83049868 1.96643589,3.94043378 C1.86042725,4.17695 1.7469458,4.41116239 1.62768139,4.6429087 C1.60357315,4.68976416 1.54112456,4.75456357 1.49512365,4.75530988 C1.00882825,4.76348688 0.522307542,4.76040428 5.32907052e-15,4.76040428" id="Fill-15"></path>
                            <path d="M28.4068395,4.75570337 C28.133012,4.75570337 27.8591469,4.75570337 27.5852819,4.75570337 C27.3161859,4.75570337 27.0469773,4.75132284 26.7780315,4.75758538 C26.6535474,4.76047328 26.571647,4.72309275 26.4909858,4.64041428 C26.0798691,4.21878007 25.6609415,3.80282431 25.24453,3.38505145 C25.199956,3.34033759 25.1538049,3.29682431 25.0582732,3.2040544 C24.9921446,3.2870249 24.9459559,3.35734054 24.8863988,3.41785676 C24.4770469,3.83368272 24.0664935,4.24869747 23.6512085,4.66017535 C23.6066345,4.70433759 23.529766,4.74983021 23.4671297,4.75060897 C22.9108754,4.75765027 22.3544333,4.75469747 21.75,4.75469747 C22.5814337,3.94352048 23.3863934,3.15820484 24.2074253,2.3571842 C23.404268,1.57589216 22.6123388,0.805535228 21.8013708,0.0166178236 C21.8720432,0.0107771156 21.9173682,0.00383316284 21.9626932,0.00376826609 C22.4570622,0.00295705665 22.9515815,0.00844083246 23.4458003,0.000101599421 C23.5934914,-0.00239692565 23.6899243,0.0411487971 23.7818135,0.134989505 C24.1777969,0.539361186 24.5803519,0.938930508 24.9789263,1.34138774 C25.0149009,1.37769747 25.0394973,1.42241133 25.0800908,1.47786561 C25.1844847,1.38337594 25.2508387,1.3280839 25.3109591,1.26815175 C25.7043514,0.876045552 26.0946645,0.481603074 26.4914364,0.0920603015 C26.5351467,0.0490986496 26.612954,0.00801900355 26.6755903,0.00727269087 C27.2256486,0.00065322184 27.7758571,0.00344378231 28.3792389,0.00344378231 C27.5705616,0.790868561 26.7897477,1.55119894 25.9911718,2.32875942 C26.8089366,3.13046148 27.6175013,3.9231429 28.4261035,4.71585676 L28.4068395,4.75570337 Z" id="Fill-25"></path>
                        </g>
                    </g>
                </g>
            </g>
        </g>
    </g>
</svg>