<?xml version="1.0" encoding="UTF-8"?>
<svg width="15px" height="15px" viewBox="0 0 15 15" version="1.1" xmlns="http://www.w3.org/2000/svg" xmlns:xlink="http://www.w3.org/1999/xlink">
    <!-- Generator: Sketch 54.1 (76490) - https://sketchapp.com -->
    <title>Instagram</title>
    <desc>Created with Sketch.</desc>
    <g id="Symbols" stroke="none" stroke-width="1" fill="none" fill-rule="evenodd">
        <g id="Footer-—-Desktop" transform="translate(-980.000000, -280.000000)" fill="#9A9BA5">
            <g id="Footer">
                <path d="M987.500266,280 C985.463492,280 985.207631,280.009043 984.408135,280.045214 C983.610234,280.081386 983.06447,280.208518 982.587858,280.393631 C982.094223,280.585659 981.676123,280.842051 981.259087,281.259087 C980.842051,281.675591 980.585659,282.094223 980.394163,282.587326 C980.208518,283.06447 980.081918,283.609702 980.045214,284.407603 C980.009043,285.207631 980,285.463492 980,287.500266 C980,289.53704 980.009043,289.792369 980.045214,290.592397 C980.081918,291.390298 980.208518,291.93553 980.394163,292.412674 C980.585659,292.905777 980.842051,293.323877 981.259087,293.740913 C981.676123,294.157949 982.094223,294.414341 982.587858,294.605837 C983.06447,294.791482 983.610234,294.918082 984.408135,294.954786 C985.207631,294.991489 985.463492,295 987.500266,295 C989.53704,295 989.7929,294.991489 990.591865,294.954786 C991.390298,294.918082 991.936062,294.791482 992.412674,294.605837 C992.905777,294.414341 993.324409,294.157949 993.740913,293.740913 C994.158481,293.323877 994.414873,292.905777 994.606369,292.412674 C994.791482,291.93553 994.918082,291.390298 994.955318,290.592397 C994.991489,289.792369 995,289.53704 995,287.500266 C995,285.463492 994.991489,285.207631 994.955318,284.407603 C994.918082,283.609702 994.791482,283.06447 994.606369,282.587326 C994.414873,282.094223 994.158481,281.675591 993.740913,281.259087 C993.324409,280.842051 992.905777,280.585659 992.412674,280.393631 C991.936062,280.208518 991.390298,280.081386 990.591865,280.045214 C989.7929,280.009043 989.53704,280 987.500266,280 M987.500266,281.351644 C989.502997,281.351644 989.739707,281.359091 990.530693,281.395262 C991.262101,281.428774 991.658924,281.550587 991.923295,281.65325 C992.273839,281.789425 992.523316,281.951665 992.786092,282.21444 C993.048335,282.476684 993.210575,282.726692 993.34675,283.076705 C993.449945,283.341076 993.571758,283.737899 993.60527,284.469307 C993.640909,285.260293 993.648888,285.497535 993.648888,287.500266 C993.648888,289.502465 993.640909,289.739707 993.60527,290.530693 C993.571758,291.26157 993.449945,291.658924 993.34675,291.923295 C993.210575,292.273308 993.048335,292.522784 992.786092,292.78556 C992.523316,293.047803 992.273839,293.210575 991.923295,293.346218 C991.658924,293.449413 991.262101,293.571226 990.530693,293.604738 C989.740239,293.640909 989.502997,293.648356 987.500266,293.648356 C985.497535,293.648356 985.260293,293.640909 984.469839,293.604738 C983.73843,293.571226 983.341608,293.449413 983.077237,293.346218 C982.726692,293.210575 982.477216,293.047803 982.21444,292.78556 C981.952197,292.522784 981.789957,292.273308 981.653782,291.923295 C981.550587,291.658924 981.428774,291.26157 981.395262,290.530693 C981.359091,289.739707 981.351644,289.502465 981.351644,287.500266 C981.351644,285.497535 981.359091,285.260293 981.395262,284.469307 C981.428774,283.737899 981.550587,283.341076 981.653782,283.076705 C981.789957,282.726692 981.952197,282.476684 982.21444,282.21444 C982.477216,281.951665 982.726692,281.789425 983.077237,281.65325 C983.341608,281.550587 983.73843,281.428774 984.469839,281.395262 C985.260293,281.359091 985.497535,281.351644 987.500266,281.351644 Z M987.500266,289.999982 C986.119366,289.999982 985.000177,288.880794 985.000177,287.499894 C985.000177,286.119526 986.119366,285.000337 987.500266,285.000337 C988.881166,285.000337 989.999823,286.119526 989.999823,287.499894 C989.999823,288.880794 988.881166,289.999982 987.500266,289.999982 Z M987.500266,283.648693 C985.373063,283.648693 983.649066,285.372691 983.649066,287.499894 C983.649066,289.627097 985.373063,291.351094 987.500266,291.351094 C989.626937,291.351094 991.351466,289.627097 991.351466,287.499894 C991.351466,285.372691 989.626937,283.648693 987.500266,283.648693 Z M992.403525,283.49656 C992.403525,282.999202 992.000851,282.596528 991.504025,282.596528 C991.006667,282.596528 990.603461,282.999202 990.603461,283.49656 C990.603461,283.993918 991.006667,284.396592 991.504025,284.396592 C992.000851,284.396592 992.403525,283.993918 992.403525,283.49656 Z" id="Instagram"></path>
            </g>
        </g>
    </g>
</svg>