<?xml version="1.0" encoding="UTF-8"?>
<svg width="126px" height="37px" viewBox="0 0 126 37" version="1.1" xmlns="http://www.w3.org/2000/svg" xmlns:xlink="http://www.w3.org/1999/xlink">
    <!-- Generator: Sketch 54.1 (76490) - https://sketchapp.com -->
    <title>Logo</title>
    <desc>Created with Sketch.</desc>
    <g id="Desktop" stroke="none" stroke-width="1" fill="none" fill-rule="evenodd">
        <g id="Home" transform="translate(-687.000000, -36.000000)" fill="#FFFFFF">
            <path d="M728.090186,72.0829777 C728.112457,72.2452478 728.134727,72.337179 728.135696,72.4297646 C728.136987,72.5544116 728.12214,72.6797129 728.111488,72.8468903 L723.143213,72.8468903 L723.143213,65.3870462 L723.948181,65.3870462 L723.948181,72.0829777 L728.090186,72.0829777 Z M747.370698,65.3615279 C747.446547,65.363818 747.52175,65.3791944 747.631167,65.392935 L747.631167,72.8423101 C747.504321,72.8596495 747.399424,72.8818962 747.294203,72.8861492 C747.20157,72.8897479 747.108292,72.8730629 746.98532,72.8625939 C745.440581,70.8770753 743.888096,68.8823964 742.33561,66.8870631 C742.303334,66.8929519 742.271058,66.8985136 742.238459,66.9044025 L742.238459,72.8449274 L741.450274,72.8449274 L741.450274,65.3958795 L742.217802,65.3958795 C743.698634,67.3015716 745.218843,69.257646 746.739375,71.2140475 C746.774556,71.2055414 746.809737,71.1976896 746.844596,71.1895107 L746.844596,65.3602193 C747.091831,65.3602193 747.231587,65.3569477 747.370698,65.3615279 L747.370698,65.3615279 Z M776.606803,65.3922807 L777.39402,65.3922807 L777.39402,72.817119 C777.298805,72.8380571 777.22457,72.8658654 777.149689,72.8675012 C777.025749,72.8707728 776.901808,72.856705 776.756242,72.8491804 C775.207953,70.859736 773.659341,68.8696372 772.110729,66.8798656 C772.073934,66.8926248 772.037139,66.9053839 772.000344,66.9181431 L772.000344,72.8351126 L771.19828,72.8351126 L771.19828,65.3723241 L771.977428,65.3723241 C773.486986,67.3136764 774.999126,69.2583003 776.511266,71.2032513 L776.606803,71.183949 L776.606803,65.3922807 Z M756.679477,69.5066128 C756.568447,70.8646433 755.459436,71.9563677 754.052194,72.0430645 C753.36697,72.0852678 752.676905,72.0502619 751.94714,72.0502619 L751.94714,66.1081012 C752.821825,66.1594649 753.66262,66.1218418 754.468234,66.2749515 C755.966818,66.5592513 756.814069,67.8649367 756.679477,69.5066128 L756.679477,69.5066128 Z M754.640267,65.4907551 C753.491234,65.3082013 752.305729,65.3631637 751.09634,65.3098371 L751.09634,72.8894208 C751.955209,72.8894208 752.753077,72.8972726 753.550622,72.8854949 C753.862733,72.8809147 754.177749,72.8514705 754.485663,72.7994525 C756.298295,72.4965047 757.544156,71.0246233 757.587406,69.1493569 C757.62872,67.3692932 756.418685,65.773092 754.640267,65.4907551 L754.640267,65.4907551 Z M812.999834,51.0801239 C812.993379,51.9215729 813.036952,52.7617132 812.787457,53.5868043 C812.18841,55.5670883 810.898976,56.8789897 809.032766,57.6491183 C807.361827,58.338439 805.610843,58.4408393 803.84824,58.2795507 C801.141235,58.0318925 798.707609,57.0445313 796.577703,55.3174672 C796.384369,55.1604316 796.206527,54.9837666 795.958645,54.7593366 C796.950493,53.5504898 797.899413,52.3949697 798.87706,51.2034623 C799.054901,51.3339981 799.192721,51.4292009 799.324408,51.533237 C800.729713,52.6426279 802.252182,53.5023976 804.046739,53.7579076 C804.857517,53.873067 805.678623,53.9159247 806.476491,53.6970563 C806.846054,53.5956375 807.227881,53.4310773 807.526436,53.1942153 C808.361421,52.5323758 808.315266,51.2515544 807.42638,50.6692142 C806.958698,50.3626676 806.429691,50.1222069 805.897456,49.952085 C804.641912,49.5519715 803.354737,49.2519681 802.105971,48.834188 C801.231931,48.5417093 800.362733,48.1903422 799.556474,47.7440994 C797.813559,46.7793121 796.987611,45.2148452 796.87529,43.2231107 C796.775879,41.4682381 797.160934,39.8723641 798.305771,38.5176051 C799.4264,37.1919631 800.886576,36.4391738 802.558806,36.1725405 C806.021719,35.6206259 809.192533,36.3920632 812.032194,38.4973213 C812.168399,38.5980858 812.290403,38.7188069 812.463404,38.868645 C811.61228,40.1206766 810.7802,41.3448998 809.917134,42.6145978 C809.726382,42.5128518 809.560482,42.4402229 809.410721,42.3414213 C808.20585,41.5483917 806.94966,40.8754288 805.518856,40.6038881 C804.70711,40.4501241 803.895686,40.4180627 803.097496,40.6689925 C802.072726,40.9905882 801.610531,41.7904882 801.86745,42.7454608 C801.988163,43.1949751 802.279617,43.5051204 802.672095,43.6899643 C803.210462,43.9431842 803.763031,44.1787376 804.329155,44.3550754 C805.437843,44.7005537 806.566542,44.9792918 807.675229,45.3237886 C808.894947,45.702637 810.067864,46.1966447 811.072622,47.0217358 C812.343982,48.065368 813.012099,49.4070407 812.999834,51.0801239 L812.999834,51.0801239 Z M781.230369,48.7144484 C782.074392,46.6262024 782.901308,44.5811412 783.774379,42.4209206 C784.643578,44.5732894 785.469526,46.6183506 786.316453,48.7144484 L781.230369,48.7144484 Z M783.802783,36.1473494 L781.636727,36.1473494 C781.148388,36.9639344 772.547426,57.6190198 772.543553,57.9942694 L777.506018,57.9942694 C778.139923,56.4298025 778.776087,54.8594467 779.419029,53.2730603 L788.135217,53.2730603 C788.778482,54.8610825 789.414323,56.4301296 790.03919,57.9723498 C790.952284,58.1212065 794.880298,58.0554478 795.207255,57.8712582 C792.168774,50.631591 789.128356,43.3866894 786.090197,36.1473494 L783.802783,36.1473494 Z M721.891865,57.9429057 C719.743883,58.5304804 717.573632,58.5563259 715.42565,57.97693 C712.285176,57.1299194 710.386367,55.0269513 709.603346,51.8571228 C709.339004,50.7866637 709.247663,49.6933035 709.245726,48.5943816 C709.238303,44.71364 709.242176,40.8332255 709.244112,36.952811 C709.244112,36.7660041 709.268319,36.5795244 709.28478,36.337755 L714.191408,36.337755 C714.204642,36.5628394 714.226589,36.7624054 714.226589,36.9619714 C714.228849,40.7471831 714.220457,44.5323948 714.235627,48.3172793 C714.238209,48.9496746 714.288237,49.5912304 714.403786,50.2121752 C714.880828,52.7816698 716.698947,53.8449315 719.081898,53.6731738 C720.419424,53.5769895 721.543282,53.0656425 722.272401,51.8597401 C722.699415,51.1534072 722.900173,50.3724824 722.963434,49.5549159 C722.995065,49.1433518 722.998293,48.7288433 722.998615,48.3156435 C723.001198,44.5621661 722.999584,40.8086887 723.00152,37.0555385 C723.00152,36.8366701 723.021854,36.6178018 723.035088,36.3547672 L727.940102,36.3547672 C727.954626,36.5114756 727.980447,36.6629495 727.980447,36.8147506 C727.98077,40.886225 727.981738,44.9573723 727.973992,49.0288467 C727.972055,50.2121752 727.798409,51.3739113 727.448213,52.5039131 C726.569977,55.3364423 724.723778,57.1681968 721.891865,57.9429057 L721.891865,57.9429057 Z M767.13858,50.9737977 C766.078952,52.5130735 764.556161,53.2769862 762.75289,53.4042504 C761.442153,53.4965088 760.12012,53.430423 758.803251,53.4330403 C758.758064,53.4330403 758.7132,53.4107936 758.621213,53.3869111 L758.621213,40.958854 C758.749027,40.9349715 758.852634,40.8983298 758.955917,40.8983298 C760.116247,40.898657 761.27819,40.8662684 762.436583,40.9163235 C765.658071,41.0556926 767.917082,43.2787274 768.188525,46.5264194 C768.322148,48.127528 768.059097,49.6370324 767.13858,50.9737977 L767.13858,50.9737977 Z M772.603586,42.9394652 C770.870677,38.6972145 767.451336,36.6652396 763.069196,36.3776682 C760.083971,36.1820281 757.077442,36.3194342 754.080597,36.3115824 C753.947296,36.3112553 753.813996,36.3472426 753.677145,36.3665449 L753.677145,58.0302567 L754.16742,58.0302567 C756.835048,58.0296024 759.503322,58.0528306 762.169981,58.0145531 C763.073715,58.001794 763.993587,57.9150973 764.87505,57.7207658 C772.37733,56.0653491 774.951357,48.688603 772.603586,42.9394652 L772.603586,42.9394652 Z M745.459624,36.3541129 L750.330748,36.3541129 L750.330748,57.9900163 L746.134519,57.9900163 C742.871073,53.6476556 739.586001,49.2765049 736.300606,44.9050271 C736.261229,44.9154961 736.221852,44.9262923 736.182475,44.9370885 L736.182475,57.995578 L731.381713,57.995578 C731.246153,57.6497726 731.204517,37.0074463 731.347178,36.3410266 L735.845835,36.3410266 C737.428659,38.4498835 739.014066,40.5626663 740.599796,42.6747948 C742.181653,44.7816887 743.764478,46.8876012 745.346657,48.9938409 C745.38442,48.9807546 745.422183,48.9676683 745.459624,48.954582 L745.459624,36.3541129 Z M736.356121,71.2958369 C735.57891,72.1346686 734.602233,72.3934501 733.518075,72.1052244 C732.421652,71.8140543 731.761281,71.0442528 731.466277,69.9508926 C731.392687,69.6777161 731.376226,69.3888361 731.333622,69.1064992 C731.360411,67.8214248 732.059191,66.6996019 733.134956,66.2517233 C734.227829,65.7963202 735.49822,66.0590276 736.30577,66.9073469 C737.423173,68.0808606 737.457063,70.1072739 736.356121,71.2958369 L736.356121,71.2958369 Z M734.109375,65.2430969 C732.254462,65.3003495 730.734898,66.706145 730.511224,68.5722511 C730.271089,70.5747818 731.356861,72.3237656 733.168846,72.8560507 C733.31764,72.8995627 733.464174,72.9515807 733.611999,73 L734.930159,73 C735.045708,72.9571424 735.158997,72.9070873 735.276805,72.8720814 C737.143661,72.3237656 738.311414,70.4694371 738.002853,68.540844 C737.672345,66.475499 736.143421,65.1806099 734.109375,65.2430969 L734.109375,65.2430969 Z M764.124305,72.2164579 C762.489516,72.2167851 761.211701,70.8564644 761.209442,69.1133695 C761.20686,67.3761635 762.449816,66.0443055 764.08041,66.0364537 C765.748444,66.0279477 767.036264,67.391867 767.023677,69.1536099 C767.011734,70.8793654 765.746185,72.2164579 764.124305,72.2164579 L764.124305,72.2164579 Z M764.013598,65.2417883 C762.128668,65.2810472 760.592644,66.6806268 760.362514,68.5673438 C760.116892,70.5823065 761.22558,72.3473209 763.064032,72.8701185 C763.198301,72.9083959 763.329665,72.9564881 763.462321,73 L764.780803,73 C764.896352,72.9571424 765.009642,72.9074144 765.12745,72.8727358 C766.996565,72.3240927 768.157217,70.4887394 767.865117,68.5421526 C767.562044,66.5226097 766.018596,65.1999122 764.013598,65.2417883 L764.013598,65.2417883 Z M700.206776,51.373257 C699.146503,52.651134 697.745393,53.2946527 696.139006,53.4026146 C694.826333,53.4909471 693.503977,53.4294415 692.185817,53.4320588 C692.142244,53.4320588 692.098349,53.4071948 692.016044,53.3823309 L692.016044,40.9483849 C692.150313,40.927774 692.255534,40.8976755 692.360431,40.8980027 C693.553037,40.9012743 694.747579,40.8672499 695.937603,40.9241753 C699.148439,41.0776121 701.434563,43.4298742 701.583679,46.6903253 C701.662755,48.4128092 701.332247,50.0168622 700.206776,51.373257 L700.206776,51.373257 Z M696.502436,36.3809398 C693.454595,36.1856268 690.386096,36.32107 687.326958,36.3115824 C687.217864,36.3112553 687.109094,36.3351378 687,36.3478969 L687,58.0145531 C689.855476,58.0191334 692.710951,58.0472689 695.566104,58.0135717 C696.469192,58.0031026 697.389386,57.9137887 698.270204,57.7155312 C706.198207,55.9305602 708.42817,47.9158571 705.694376,42.3034711 C703.83688,38.4891424 700.572143,36.6413572 696.502436,36.3809398 L696.502436,36.3809398 Z" id="Logo"></path>
        </g>
    </g>
</svg>