<?xml version="1.0" encoding="UTF-8"?>
<svg width="44px" height="28px" viewBox="0 0 44 28" version="1.1" xmlns="http://www.w3.org/2000/svg" xmlns:xlink="http://www.w3.org/1999/xlink">
    <!-- Generator: Sketch 54.1 (76490) - https://sketchapp.com -->
    <title>PayPal</title>
    <desc>Created with Sketch.</desc>
    <g id="Symbols" stroke="none" stroke-width="1" fill="none" fill-rule="evenodd" opacity="0.4">
        <g id="Footer-—-Desktop" transform="translate(-1307.000000, -472.000000)">
            <g id="Footer">
                <g id="Payment-Icons" transform="translate(1206.000000, 473.000000)">
                    <g id="PayPal" transform="translate(102.000000, 0.000000)">
                        <path d="M41.9999658,24.3449587 C42.0053023,25.1027225 41.3859347,25.7210104 40.6154774,25.7262613 L1.57063743,25.999962 C0.800180155,26.0055411 0.171807213,25.3957857 0.166137181,24.6383501 L3.86005487e-05,1.65602152 C-0.00563143131,0.897929576 0.614069698,0.27931342 1.38452697,0.273734389 L40.4290334,3.36597619e-05 C41.1994907,-0.00521719355 41.8281972,0.604538147 41.8335337,1.36295827 L41.9999658,24.3449587 Z" id="Stroke-17-Copy" stroke="#FFFFFF" stroke-width="0.6"></path>
                        <path d="M10.8493701,12.6610378 C11.1316179,12.6480291 11.3979557,12.6515944 11.660113,12.6200362 C12.0771183,12.5698321 12.2938388,12.3369033 12.3505989,11.9172028 C12.3554484,11.8814769 12.3602261,11.845727 12.3639289,11.8098807 C12.4014346,11.4463586 12.234212,11.2179347 11.8747312,11.1740423 C11.6627407,11.1481693 11.4469042,11.1521924 11.232692,11.1478321 C11.1347474,11.1458326 11.0782261,11.2057932 11.0631283,11.3004439 C10.9926321,11.7427652 10.9239275,12.1853515 10.8493701,12.6610378 Z M11.393154,13.7885103 C11.2458548,13.7885103 11.0985317,13.7874263 10.9512325,13.7887753 C10.7570393,13.7905821 10.6583063,13.8791861 10.6285646,14.0705109 C10.559,14.5183007 10.489531,14.9660905 10.4167892,15.4133504 C10.3870713,15.5960027 10.2893894,15.678801 10.1073318,15.6800296 C9.80477838,15.6821013 9.50217717,15.6821736 9.19959985,15.6799814 C9.04780952,15.6788732 8.98101604,15.6004594 9.00464221,15.4480885 C9.15029308,14.5090019 9.29802229,13.5702044 9.44481983,12.6313104 C9.56247286,11.878562 9.67993478,11.1257895 9.7971817,10.3729688 C9.84574792,10.0612167 9.91299528,10.0029182 10.2273499,10.00287 C10.8404834,10.0028219 11.4537842,9.99429391 12.0666549,10.006869 C12.3272116,10.0122412 12.5925939,10.0370782 12.8458883,10.0961716 C13.5365415,10.2573355 13.8874222,10.7230725 13.8868967,11.4390592 C13.8866578,11.8124824 13.8159704,12.1732582 13.6778684,12.5189535 C13.3837,13.2553687 12.8246033,13.6453901 12.059751,13.7517968 C11.8397817,13.7824155 11.6160379,13.7853063 11.394014,13.8008927 C11.3937274,13.7967733 11.3934407,13.7926538 11.393154,13.7885103 Z M25.2763051,12.660238 C25.556379,12.6475666 25.8226212,12.6513969 26.0847546,12.6199591 C26.4871399,12.5717304 26.6948542,12.3609888 26.7695788,11.9656676 C26.7784894,11.9185229 26.7828372,11.8704869 26.78912,11.8228123 C26.8362051,11.4652165 26.6674536,11.223037 26.3135629,11.1766392 C26.0979891,11.1483572 25.8779719,11.1531512 25.6598181,11.1479959 C25.5624229,11.1456591 25.5032739,11.2041021 25.4882477,11.2986564 C25.4179187,11.7412668 25.3501458,12.1842626 25.2763051,12.660238 Z M25.5734357,10.018283 C25.9909188,10.018283 26.4085453,10.0110559 26.8257895,10.0208847 C27.0937996,10.0271964 27.3531618,10.093806 27.5974979,10.2084756 C28.0058554,10.4000655 28.2512426,10.727404 28.2954133,11.1734111 C28.3614662,11.8406632 28.2251559,12.4701177 27.8232961,13.017328 C27.4940826,13.4656719 27.0254055,13.6889886 26.4883105,13.7484434 C26.1299047,13.788096 25.7661478,13.7803389 25.4046603,13.7889632 C25.1750398,13.7944558 25.0884663,13.8658352 25.0535168,14.0918983 C24.9818978,14.5552022 24.909562,15.0184339 24.8365813,15.481521 C24.8155591,15.6148365 24.7448717,15.678748 24.6093736,15.6796875 C24.2791568,15.681952 23.9488922,15.6823133 23.6186515,15.6795911 C23.4746967,15.6784107 23.4080943,15.5988647 23.4303349,15.4544676 C23.5516908,14.6664029 23.6752444,13.8786754 23.7982724,13.0908997 C23.9392172,12.1882134 24.0821447,11.2858644 24.220605,10.3827928 C24.268789,10.0685112 24.3383297,10.0021666 24.6543087,10.0020702 C24.9606844,10.001998 25.26706,10.0020702 25.5734357,10.0020702 C25.5734357,10.0074665 25.5734357,10.0128627 25.5734357,10.018283 Z M15.7052989,14.7309648 C16.2709652,14.7481893 16.7504401,14.3270674 16.8184758,13.7532855 C16.8719631,13.3021954 16.6365615,12.9515616 16.2221123,12.864933 C15.612586,12.7375437 15.0254914,13.1485718 14.9261134,13.7722446 C14.8358371,14.3390403 15.1403972,14.7137884 15.7052989,14.7309648 Z M16.5223246,15.2654554 C16.3536448,15.3716935 16.1907461,15.494602 16.0112446,15.5833264 C15.5593136,15.8066432 15.0822515,15.8337447 14.6059299,15.6852042 C13.9929636,15.4940479 13.6906968,15.0263596 13.6050311,14.415286 C13.4557252,13.350135 14.1025899,12.1554988 15.2772091,11.8635008 C15.6559205,11.769356 16.0344169,11.7810639 16.4096644,11.8809421 C16.642916,11.9430227 16.8424364,12.0610891 16.9826167,12.3046898 C17.0003662,12.2056307 17.0157029,12.1369012 17.0244701,12.0673526 C17.0388991,11.9531406 17.1007953,11.894529 17.2143394,11.8942399 C17.5247045,11.8934931 17.8350936,11.8919032 18.1454348,11.8948181 C18.2882906,11.896119 18.3541525,11.9805072 18.3318163,12.1232902 C18.1601743,13.2198789 17.9882694,14.3164677 17.8160541,15.4129842 C17.7891551,15.5840973 17.6873643,15.6776157 17.5174662,15.6794225 C17.2389689,15.6824097 16.9604,15.682482 16.6819027,15.6796875 C16.5378285,15.678218 16.4755023,15.5984792 16.4950434,15.4522754 C16.5038823,15.3861958 16.514274,15.320309 16.5223246,15.2654554 Z M31.2508981,13.639329 C31.2570614,13.2361061 31.0122236,12.9296057 30.6298573,12.8618398 C29.9318941,12.7381122 29.3142216,13.2773005 29.3335478,13.9933354 C29.3433661,14.3574356 29.5615438,14.6255602 29.9122096,14.7045522 C30.5981566,14.8590912 31.2400525,14.3483054 31.2508981,13.639329 Z M30.9245751,15.2616154 C30.5673399,15.5750779 30.1563546,15.7572726 29.679388,15.7698718 C28.6553885,15.7969252 28.0079983,15.1534261 28.0103633,14.114413 C28.012776,13.0445404 28.7158992,12.1100791 29.7061436,11.8628889 C30.0808416,11.7693705 30.455683,11.7814397 30.8274905,11.8786198 C31.0614349,11.9397609 31.1215156,11.9855806 31.4135101,12.2789759 C31.4269595,12.1986831 31.4389518,12.1241478 31.4520429,12.0497811 C31.4700313,11.9476866 31.5320709,11.8951457 31.6338139,11.8948085 C31.9482879,11.8937485 32.2627858,11.8921585 32.5772359,11.895483 C32.7132118,11.8969525 32.7758247,11.9766431 32.7541335,12.1184384 C32.6377227,12.8793534 32.5192336,13.6399312 32.401055,14.4006054 C32.3499804,14.7292688 32.2972814,15.0576914 32.2464697,15.386403 C32.2142435,15.5948079 32.1202644,15.679172 31.9094206,15.6802801 C31.6506795,15.6816292 31.3919384,15.6815328 31.1331972,15.6803765 C30.9593574,15.6795574 30.8982495,15.604444 30.9231418,15.4296932 C30.9304757,15.3783569 30.9330557,15.326346 30.9378096,15.2746483 C30.9414168,15.2694207 30.9450241,15.2642413 30.9486791,15.2590378 C30.9406524,15.259905 30.9326257,15.2607482 30.9245751,15.2616154 Z M20.7791093,14.0024222 C21.0199815,13.6447541 21.2475475,13.3069122 21.4750897,12.9690463 C21.680654,12.6638468 21.8877711,12.3596831 22.0909465,12.0528213 C22.1611561,11.946776 22.2518147,11.8924765 22.3789755,11.8932474 C22.6814095,11.8950542 22.9840346,11.8884053 23.2862058,11.8981377 C23.3507776,11.9002095 23.4435861,11.9421988 23.4688606,11.9932461 C23.4945174,12.0450643 23.4741879,12.1457375 23.4373989,12.1995792 C22.3770405,13.752028 21.3119521,15.3012006 20.2482014,16.8512885 C20.1795924,16.9512149 20.0923261,17.0018286 19.9677931,16.9999495 C19.6654069,16.9953724 19.362734,17.0037317 19.0605867,16.9942642 C18.9959432,16.9922407 18.9031108,16.9522749 18.8775018,16.9017817 C18.8514629,16.8504695 18.8709085,16.7496517 18.9074108,16.6961713 C19.2073125,16.256789 19.5141899,15.8221766 19.8234322,15.3893709 C19.8735034,15.3192683 19.8797623,15.2613794 19.8523378,15.1809661 C19.520401,14.2074063 19.1919997,13.232642 18.8627146,12.2581908 C18.8485962,12.2163942 18.8326623,12.1750794 18.8213628,12.132536 C18.7851233,11.9958238 18.8517973,11.896861 18.9914282,11.8952228 C19.3097244,11.891537 19.628164,11.8913202 19.9464602,11.8963069 C20.0954078,11.8986436 20.1751968,11.9794906 20.2286125,12.1591076 C20.4043157,12.7500658 20.5793977,13.3412168 20.7548381,13.9322473 C20.7591381,13.9467014 20.7646803,13.9608183 20.7791093,14.0024222 Z M34.3624541,10.001957 C34.4938194,10.0019088 34.6251846,10.0012343 34.7565738,10.0020775 C34.9655065,10.0034265 35.0243449,10.073216 34.9914738,10.288848 C34.9280247,10.7050554 34.8619002,11.1208293 34.7967072,11.5367718 C34.6396136,12.5388303 34.4823766,13.5408407 34.3251873,14.5428752 C34.2798461,14.8320306 34.2359382,15.1214511 34.1885187,15.4102692 C34.1584664,15.5930902 34.0617401,15.6780566 33.8809008,15.6798393 C33.6221597,15.6824169 33.3633708,15.6820797 33.1046297,15.6801043 C32.9465327,15.6788997 32.8821998,15.5995464 32.9069487,15.4408639 C33.1386475,13.9553619 33.3708241,12.4699081 33.6025469,10.9844061 C33.6433492,10.7229063 33.6809265,10.4608765 33.7233294,10.1996417 C33.7481261,10.0469095 33.800849,10.0042456 33.9563899,10.0023425 C34.0917207,10.0006802 34.2270993,10.0019811 34.3624541,10.001957 Z" id="Combined-Shape" fill="#FFFFFF"></path>
                    </g>
                </g>
            </g>
        </g>
    </g>
</svg>