<?xml version="1.0" encoding="UTF-8"?>
<svg width="24px" height="17px" viewBox="0 0 24 17" version="1.1" xmlns="http://www.w3.org/2000/svg" xmlns:xlink="http://www.w3.org/1999/xlink">
    <!-- Generator: Sketch 54.1 (76490) - https://sketchapp.com -->
    <title>Quote Mark</title>
    <desc>Created with Sketch.</desc>
    <g id="Desktop" stroke="none" stroke-width="1" fill="none" fill-rule="evenodd">
        <g id="Home" transform="translate(-744.000000, -1661.000000)" fill="#1E37D2" fill-rule="nonzero">
            <g id="Reviews" transform="translate(151.000000, 1661.000000)">
                <path d="M596.835209,17 C594.676479,17 593.343146,15.1901141 593.343146,12.8631179 C593.343146,6.39923954 599.184416,1.29277567 605.15267,0 L605.343146,0.969581749 C602.041558,2.19771863 598.612987,5.10646388 598.612987,9.17870722 C598.612987,10.9239544 599.120924,12.4752852 600.708225,13.3155894 C600.327273,15.2547529 598.866955,17 596.835209,17 Z M607.835209,17 C605.676479,17 604.343146,15.1901141 604.343146,12.8631179 C604.343146,6.39923954 610.184416,1.29277567 616.15267,0 L616.343146,0.969581749 C613.041558,2.19771863 609.612987,5.10646388 609.612987,9.17870722 C609.612987,10.9239544 610.120924,12.4752852 611.708225,13.3155894 C611.327273,15.2547529 609.866955,17 607.835209,17 Z" id="Quote-Mark"></path>
            </g>
        </g>
    </g>
</svg>