<?xml version="1.0" encoding="UTF-8"?>
<svg width="18px" height="14px" viewBox="0 0 18 14" version="1.1" xmlns="http://www.w3.org/2000/svg" xmlns:xlink="http://www.w3.org/1999/xlink">
    <!-- Generator: Sketch 54.1 (76490) - https://sketchapp.com -->
    <title>Twitter</title>
    <desc>Created with Sketch.</desc>
    <g id="Symbols" stroke="none" stroke-width="1" fill="none" fill-rule="evenodd">
        <g id="Footer-—-Desktop" transform="translate(-1041.000000, -281.000000)" fill="#9A9BA5">
            <g id="Footer">
                <path d="M1059,282.657273 C1058.33808,282.938176 1057.62623,283.128276 1056.87886,283.213768 C1057.64121,282.776218 1058.22711,282.083785 1058.50287,281.2586 C1057.78935,281.663228 1056.99871,281.957406 1056.15757,282.115646 C1055.484,281.429054 1054.52414,281 1053.46218,281 C1051.4226,281 1049.76919,282.582401 1049.76919,284.534383 C1049.76919,284.811037 1049.80192,285.080789 1049.86462,285.339389 C1046.79582,285.191769 1044.0749,283.785132 1042.25282,281.646767 C1041.93545,282.168746 1041.75347,282.775687 1041.75347,283.423516 C1041.75347,284.649611 1042.40485,285.731804 1043.39578,286.365295 C1042.79101,286.347241 1042.22119,286.187939 1041.72351,285.923497 C1041.72295,285.938365 1041.72295,285.953233 1041.72295,285.967571 C1041.72295,287.680068 1042.9963,289.108477 1044.68522,289.433453 C1044.37562,289.514167 1044.04938,289.557178 1043.71259,289.557178 C1043.47457,289.557178 1043.2432,289.535407 1043.01738,289.493988 C1043.48789,290.897971 1044.85167,291.919628 1046.46736,291.948303 C1045.20344,292.89615 1043.61106,293.461673 1041.88108,293.461673 C1041.58313,293.461673 1041.28907,293.44468 1041,293.411758 C1042.63399,294.41483 1044.57537,295 1046.661,295 C1053.4533,295 1057.16793,289.614527 1057.16793,284.943789 C1057.16793,284.790859 1057.1646,284.63846 1057.15739,284.486592 C1057.87868,283.988507 1058.50509,283.365636 1059,282.657273" id="Twitter"></path>
            </g>
        </g>
    </g>
</svg>