<?xml version="1.0" encoding="UTF-8"?>
<svg width="44px" height="27px" viewBox="0 0 44 27" version="1.1" xmlns="http://www.w3.org/2000/svg" xmlns:xlink="http://www.w3.org/1999/xlink">
    <!-- Generator: Sketch 54.1 (76490) - https://sketchapp.com -->
    <title>Visa</title>
    <desc>Created with Sketch.</desc>
    <g id="Symbols" stroke="none" stroke-width="1" fill="none" fill-rule="evenodd" opacity="0.4">
        <g id="Footer-—-Desktop" transform="translate(-1255.000000, -472.000000)">
            <g id="Footer">
                <g id="Payment-Icons" transform="translate(1206.000000, 473.000000)">
                    <g id="Visa" transform="translate(50.000000, 0.000000)">
                        <path d="M42,23.6669728 C42,24.4033268 41.3734992,25 40.6003348,25 L1.4,25 C0.626835685,25 0,24.4033268 0,23.6669728 L0,1.333665 C0,0.596673172 0.626835685,0 1.4,0 L40.6003348,0 C41.3734992,0 42,0.596673172 42,1.333665 L42,23.6669728 Z" id="Stroke-3" stroke="#FFFFFF" stroke-width="0.6"></path>
                        <path d="M10.3794271,9.15387077 C9.89881638,8.84277495 8.91769907,8.53510404 8.30154746,8.34730491 L8.0578225,8.27309857 C7.9894303,8.24627012 8.13554092,8.31020174 8.02735688,8.25882812 C8.02424815,8.25768648 8.01554368,8.25711567 8.01367844,8.25083667 C8.0118132,8.24455767 8.00435223,8.24569931 8,8.2422744 C8.23750748,8.08872435 8.83811541,8.13496061 9.15582831,8.13838552 C9.98959149,8.14751861 10.866877,8.12582752 11.6850965,8.14980188 C12.1259154,8.16235987 12.3603141,8.28622738 12.5213467,8.55108694 C12.6718095,8.79882196 12.9030995,10.0865874 12.9814397,10.4627565 C13.0355317,10.7224787 13.4036061,12.2910866 13.3750058,12.3926922 C13.4887855,12.5468131 13.5217381,13.2323655 13.6187307,13.4047526 L15.7382674,8.14181043 L18.0511675,8.14352288 C17.9230876,8.49229269 17.3890066,9.63278709 17.1975084,10.0609006 C16.6155529,11.361224 16.0634413,12.6655432 15.4746465,13.9578752 C15.3272924,14.2798166 15.1842905,14.5931957 15.0394234,14.9185619 C14.9579745,15.1017945 14.6284484,15.7753598 14.5979828,15.8958024 L12.3254962,15.8821028 C12.1750334,15.3329758 11.9891309,14.7747158 11.8349376,14.2147433 L10.8681205,10.8537668 C10.7667757,10.4890141 10.4248146,9.4175887 10.3794271,9.15387077 Z M31.1296228,11.6808821 L30.5569935,13.1261934 L32.3588173,13.1301891 C32.3258647,12.9121366 32.2493898,12.6467062 32.197163,12.4269413 C32.1399622,12.1889102 32.0846267,11.9514499 32.027426,11.7111355 L31.7389352,10.2629702 C31.5126192,10.6728175 31.308686,11.2276526 31.1296228,11.6808821 Z M29.4198176,15.8935191 L27.1765532,15.8935191 L28.2360107,13.5474571 C28.5960024,12.7620115 28.9448027,11.97942 29.3066596,11.1962576 C29.6647861,10.42337 30.024156,9.63792445 30.3692258,8.85875786 C30.5880809,8.36385863 30.8684889,8.18176769 31.4087874,8.15722251 C31.9969603,8.12982325 32.6460646,8.13895634 33.2373463,8.1503727 L35,15.8895234 L32.9793211,15.8940899 C32.9239856,15.5744318 32.8189103,15.2228079 32.7505181,14.8917335 C32.7306222,14.7952652 32.7449224,14.7404667 32.6578778,14.7250546 L29.9520333,14.7222005 C29.8164924,14.7513123 29.574011,15.8141754 29.4198176,15.8935191 Z M27.3593469,9.99468571 C27.1740662,9.95244518 26.9222586,9.80974067 26.4180215,9.70413934 C25.8677751,9.5888341 24.7473864,9.53403557 24.4066688,9.98954835 C24.1063649,10.3902626 24.3905034,10.5763493 24.608115,10.7487363 C25.1397089,11.17 25.882697,11.3229792 26.5442362,11.8378571 C26.6748031,11.9388919 26.7332474,12.0193772 26.8526229,12.1284035 C27.0310643,12.289945 27.2008014,12.6027532 27.277898,12.904716 C27.4463916,13.5685773 27.2132363,14.287808 26.8756275,14.7199173 C25.7633215,16.1412541 23.2732234,16.2034733 21.5920186,15.7479605 C21.4284991,15.7034367 21.2525446,15.6275179 21.1051904,15.5966937 L21.4191728,13.8574112 C22.0552204,14.1131377 22.5681619,14.3214863 23.3745682,14.3654393 C23.6897941,14.3831346 24.2145489,14.3660101 24.4806567,14.262692 C24.7424124,14.1616572 25.060747,13.9424631 25.0595035,13.6153844 C25.05826,12.989197 23.7277207,12.6980798 22.9188274,12.107854 C22.2174964,11.5958303 21.8686962,10.9154152 22.0496246,10.131682 C22.4742781,8.29136475 24.8487312,7.80160289 26.6039239,8.06703327 C26.8557316,8.10584889 27.4457698,8.20460041 27.6254548,8.30620602 L27.3593469,9.99468571 Z M21.1033252,8.13952715 L19.7510247,15.8855277 L17.5904527,15.8860985 C17.6134574,15.5772859 17.690554,15.2245204 17.7415373,14.915137 L18.2488832,12.001111 C18.4751992,10.7196246 18.6859715,9.42672178 18.9278313,8.14523533 L21.1033252,8.13952715 Z" id="Combined-Shape" fill="#FFFFFF"></path>
                    </g>
                </g>
            </g>
        </g>
    </g>
</svg>